<?xml version="1.0" encoding="UTF-8"?>
<svg xmlns="http://www.w3.org/2000/svg" xmlns:xlink="http://www.w3.org/1999/xlink" width="576" height="301" viewBox="-.02 -.02 23.04 12.04">
	<defs>
		<path id="a" fill="#0f0" d="M0,0v1h1v-1z" stroke="#000" stroke-width=".04"/>
	</defs>
	<use xlink:href="#a" x="3" y="0"/>
	<use xlink:href="#a" x="7" y="0"/>
	<use xlink:href="#a" x="8" y="0"/>
	<use xlink:href="#a" x="12" y="0"/>
	<use xlink:href="#a" x="13" y="0"/>
	<use xlink:href="#a" x="13" y="1"/>
	<use xlink:href="#a" x="17" y="0"/>
	<use xlink:href="#a" x="18" y="0"/>
	<use xlink:href="#a" x="19" y="0"/>
	<use xlink:href="#a" x="0" y="2"/>
	<use xlink:href="#a" x="1" y="2"/>
	<use xlink:href="#a" x="0" y="3"/>
	<use xlink:href="#a" x="1" y="3"/>
	<use xlink:href="#a" x="5" y="2"/>
	<use xlink:href="#a" x="4" y="3"/>
	<use xlink:href="#a" x="5" y="3"/>
	<use xlink:href="#a" x="6" y="3"/>
	<use xlink:href="#a" x="9" y="3"/>
	<use xlink:href="#a" x="10" y="3"/>
	<use xlink:href="#a" x="11" y="3"/>
	<use xlink:href="#a" x="12" y="3"/>
	<use xlink:href="#a" x="17" y="2"/>
	<use xlink:href="#a" x="15" y="3"/>
	<use xlink:href="#a" x="16" y="3"/>
	<use xlink:href="#a" x="17" y="3"/>
	<use xlink:href="#a" x="21" y="2"/>
	<use xlink:href="#a" x="22" y="2"/>
	<use xlink:href="#a" x="20" y="3"/>
	<use xlink:href="#a" x="21" y="3"/>
	<use xlink:href="#a" x="0" y="6"/>
	<use xlink:href="#a" x="0" y="7"/>
	<use xlink:href="#a" x="1" y="7"/>
	<use xlink:href="#a" x="2" y="7"/>
	<use xlink:href="#a" x="3" y="7"/>
	<use xlink:href="#a" x="6" y="5"/>
	<use xlink:href="#a" x="6" y="6"/>
	<use xlink:href="#a" x="5" y="7"/>
	<use xlink:href="#a" x="6" y="7"/>
	<use xlink:href="#a" x="7" y="7"/>
	<use xlink:href="#a" x="9" y="5"/>
	<use xlink:href="#a" x="9" y="6"/>
	<use xlink:href="#a" x="9" y="7"/>
	<use xlink:href="#a" x="10" y="7"/>
	<use xlink:href="#a" x="11" y="7"/>
	<use xlink:href="#a" x="14" y="6"/>
	<use xlink:href="#a" x="15" y="6"/>
	<use xlink:href="#a" x="16" y="6"/>
	<use xlink:href="#a" x="13" y="7"/>
	<use xlink:href="#a" x="14" y="7"/>
	<use xlink:href="#a" x="20" y="5"/>
	<use xlink:href="#a" x="18" y="6"/>
	<use xlink:href="#a" x="19" y="6"/>
	<use xlink:href="#a" x="20" y="6"/>
	<use xlink:href="#a" x="18" y="7"/>
	<use xlink:href="#a" x="22" y="5"/>
	<use xlink:href="#a" x="22" y="6"/>
	<use xlink:href="#a" x="22" y="7"/>
	<use xlink:href="#a" x="22" y="8"/>
	<use xlink:href="#a" x="22" y="9"/>
	<use xlink:href="#a" x="0" y="9"/>
	<use xlink:href="#a" x="0" y="10"/>
	<use xlink:href="#a" x="1" y="10"/>
	<use xlink:href="#a" x="0" y="11"/>
	<use xlink:href="#a" x="1" y="11"/>
	<use xlink:href="#a" x="4" y="9"/>
	<use xlink:href="#a" x="5" y="9"/>
	<use xlink:href="#a" x="3" y="10"/>
	<use xlink:href="#a" x="4" y="10"/>
	<use xlink:href="#a" x="3" y="11"/>
	<use xlink:href="#a" x="7" y="9"/>
	<use xlink:href="#a" x="8" y="9"/>
	<use xlink:href="#a" x="7" y="10"/>
	<use xlink:href="#a" x="7" y="11"/>
	<use xlink:href="#a" x="8" y="11"/>
	<use xlink:href="#a" x="12" y="9"/>
	<use xlink:href="#a" x="13" y="9"/>
	<use xlink:href="#a" x="11" y="10"/>
	<use xlink:href="#a" x="12" y="10"/>
	<use xlink:href="#a" x="12" y="11"/>
	<use xlink:href="#a" x="16" y="9"/>
	<use xlink:href="#a" x="15" y="10"/>
	<use xlink:href="#a" x="16" y="10"/>
	<use xlink:href="#a" x="17" y="10"/>
	<use xlink:href="#a" x="16" y="11"/>
	<use xlink:href="#a" x="20" y="10"/>
	<use xlink:href="#a" x="19" y="11"/>
	<use xlink:href="#a" x="20" y="11"/>
	<use xlink:href="#a" x="21" y="11"/>
	<use xlink:href="#a" x="22" y="11"/>
</svg>